<mxfile host="app.diagrams.net" modified="2023-02-01T02:36:07.753Z" agent="5.0 (Windows NT 10.0; Win64; x64) AppleWebKit/537.36 (KHTML, like Gecko) Chrome/109.0.0.0 Safari/537.36" etag="Bp-z7Dqz1XwV5VDGNRSe" version="20.8.10" type="github">
  <diagram id="C5RBs43oDa-KdzZeNtuy" name="Page-1">
    <mxGraphModel dx="1300" dy="659" grid="1" gridSize="10" guides="1" tooltips="1" connect="1" arrows="1" fold="1" page="1" pageScale="1" pageWidth="827" pageHeight="1169" math="0" shadow="0">
      <root>
        <mxCell id="WIyWlLk6GJQsqaUBKTNV-0" />
        <mxCell id="WIyWlLk6GJQsqaUBKTNV-1" parent="WIyWlLk6GJQsqaUBKTNV-0" />
        <mxCell id="WIyWlLk6GJQsqaUBKTNV-2" value="" style="rounded=0;html=1;jettySize=auto;orthogonalLoop=1;fontSize=11;endArrow=block;endFill=0;endSize=8;strokeWidth=1;shadow=0;labelBackgroundColor=none;edgeStyle=orthogonalEdgeStyle;" parent="WIyWlLk6GJQsqaUBKTNV-1" edge="1">
          <mxGeometry relative="1" as="geometry">
            <mxPoint x="680" y="110" as="sourcePoint" />
            <mxPoint x="680" y="150" as="targetPoint" />
          </mxGeometry>
        </mxCell>
        <mxCell id="2k3Zc9sMIZEYFVVRc4tp-0" value="Mulai" style="rounded=1;whiteSpace=wrap;html=1;fontSize=12;glass=0;strokeWidth=1;shadow=0;arcSize=50;" parent="WIyWlLk6GJQsqaUBKTNV-1" vertex="1">
          <mxGeometry x="620" y="70" width="120" height="40" as="geometry" />
        </mxCell>
        <mxCell id="2k3Zc9sMIZEYFVVRc4tp-1" value="Update" style="shape=process;whiteSpace=wrap;html=1;backgroundOutline=1;" parent="WIyWlLk6GJQsqaUBKTNV-1" vertex="1">
          <mxGeometry x="620" y="390" width="120" height="60" as="geometry" />
        </mxCell>
        <mxCell id="2k3Zc9sMIZEYFVVRc4tp-2" value="Delete" style="shape=process;whiteSpace=wrap;html=1;backgroundOutline=1;" parent="WIyWlLk6GJQsqaUBKTNV-1" vertex="1">
          <mxGeometry x="800" y="390" width="120" height="60" as="geometry" />
        </mxCell>
        <mxCell id="2k3Zc9sMIZEYFVVRc4tp-3" value="Create" style="shape=process;whiteSpace=wrap;html=1;backgroundOutline=1;" parent="WIyWlLk6GJQsqaUBKTNV-1" vertex="1">
          <mxGeometry x="440" y="390" width="120" height="60" as="geometry" />
        </mxCell>
        <mxCell id="2k3Zc9sMIZEYFVVRc4tp-4" value="" style="rounded=0;html=1;jettySize=auto;orthogonalLoop=1;fontSize=11;endArrow=block;endFill=0;endSize=8;strokeWidth=1;shadow=0;labelBackgroundColor=none;edgeStyle=orthogonalEdgeStyle;" parent="WIyWlLk6GJQsqaUBKTNV-1" edge="1">
          <mxGeometry relative="1" as="geometry">
            <mxPoint x="680" y="350" as="sourcePoint" />
            <mxPoint x="499.5" y="390" as="targetPoint" />
          </mxGeometry>
        </mxCell>
        <mxCell id="2k3Zc9sMIZEYFVVRc4tp-5" value="" style="rounded=0;html=1;jettySize=auto;orthogonalLoop=1;fontSize=11;endArrow=block;endFill=0;endSize=8;strokeWidth=1;shadow=0;labelBackgroundColor=none;edgeStyle=orthogonalEdgeStyle;" parent="WIyWlLk6GJQsqaUBKTNV-1" edge="1">
          <mxGeometry relative="1" as="geometry">
            <mxPoint x="680" y="350" as="sourcePoint" />
            <mxPoint x="860" y="390" as="targetPoint" />
          </mxGeometry>
        </mxCell>
        <mxCell id="2k3Zc9sMIZEYFVVRc4tp-17" style="edgeStyle=orthogonalEdgeStyle;rounded=0;orthogonalLoop=1;jettySize=auto;html=1;exitX=0.5;exitY=1;exitDx=0;exitDy=0;" parent="WIyWlLk6GJQsqaUBKTNV-1" source="2k3Zc9sMIZEYFVVRc4tp-6" edge="1">
          <mxGeometry relative="1" as="geometry">
            <mxPoint x="500" y="610" as="targetPoint" />
          </mxGeometry>
        </mxCell>
        <mxCell id="2k3Zc9sMIZEYFVVRc4tp-6" value="Data Kamar&lt;br&gt;Data tipe kamar&lt;br&gt;Data User" style="shape=parallelogram;perimeter=parallelogramPerimeter;whiteSpace=wrap;html=1;fixedSize=1;" parent="WIyWlLk6GJQsqaUBKTNV-1" vertex="1">
          <mxGeometry x="440" y="490" width="120" height="60" as="geometry" />
        </mxCell>
        <mxCell id="2k3Zc9sMIZEYFVVRc4tp-18" style="edgeStyle=orthogonalEdgeStyle;rounded=0;orthogonalLoop=1;jettySize=auto;html=1;exitX=0.5;exitY=1;exitDx=0;exitDy=0;" parent="WIyWlLk6GJQsqaUBKTNV-1" source="2k3Zc9sMIZEYFVVRc4tp-7" edge="1">
          <mxGeometry relative="1" as="geometry">
            <mxPoint x="680" y="610" as="targetPoint" />
          </mxGeometry>
        </mxCell>
        <mxCell id="2k3Zc9sMIZEYFVVRc4tp-7" value="Data Kamar&lt;br style=&quot;border-color: var(--border-color);&quot;&gt;Data tipe kamar&lt;br style=&quot;border-color: var(--border-color);&quot;&gt;Data User" style="shape=parallelogram;perimeter=parallelogramPerimeter;whiteSpace=wrap;html=1;fixedSize=1;" parent="WIyWlLk6GJQsqaUBKTNV-1" vertex="1">
          <mxGeometry x="620" y="490" width="120" height="60" as="geometry" />
        </mxCell>
        <mxCell id="2k3Zc9sMIZEYFVVRc4tp-9" value="" style="rounded=0;html=1;jettySize=auto;orthogonalLoop=1;fontSize=11;endArrow=block;endFill=0;endSize=8;strokeWidth=1;shadow=0;labelBackgroundColor=none;edgeStyle=orthogonalEdgeStyle;entryX=0.5;entryY=0;entryDx=0;entryDy=0;" parent="WIyWlLk6GJQsqaUBKTNV-1" target="2k3Zc9sMIZEYFVVRc4tp-6" edge="1">
          <mxGeometry relative="1" as="geometry">
            <mxPoint x="499.5" y="450" as="sourcePoint" />
            <mxPoint x="500" y="480" as="targetPoint" />
          </mxGeometry>
        </mxCell>
        <mxCell id="2k3Zc9sMIZEYFVVRc4tp-12" value="" style="rounded=0;html=1;jettySize=auto;orthogonalLoop=1;fontSize=11;endArrow=block;endFill=0;endSize=8;strokeWidth=1;shadow=0;labelBackgroundColor=none;edgeStyle=orthogonalEdgeStyle;entryX=0.5;entryY=0;entryDx=0;entryDy=0;exitX=0.5;exitY=1;exitDx=0;exitDy=0;" parent="WIyWlLk6GJQsqaUBKTNV-1" source="2k3Zc9sMIZEYFVVRc4tp-1" target="2k3Zc9sMIZEYFVVRc4tp-7" edge="1">
          <mxGeometry relative="1" as="geometry">
            <mxPoint x="679.5" y="440" as="sourcePoint" />
            <mxPoint x="679.5" y="510" as="targetPoint" />
          </mxGeometry>
        </mxCell>
        <mxCell id="2k3Zc9sMIZEYFVVRc4tp-13" value="" style="rounded=0;html=1;jettySize=auto;orthogonalLoop=1;fontSize=11;endArrow=block;endFill=0;endSize=8;strokeWidth=1;shadow=0;labelBackgroundColor=none;edgeStyle=orthogonalEdgeStyle;entryX=0.5;entryY=0;entryDx=0;entryDy=0;exitX=0.5;exitY=1;exitDx=0;exitDy=0;" parent="WIyWlLk6GJQsqaUBKTNV-1" edge="1">
          <mxGeometry relative="1" as="geometry">
            <mxPoint x="859.5" y="450" as="sourcePoint" />
            <mxPoint x="859.5" y="490" as="targetPoint" />
          </mxGeometry>
        </mxCell>
        <mxCell id="2k3Zc9sMIZEYFVVRc4tp-19" style="edgeStyle=orthogonalEdgeStyle;rounded=0;orthogonalLoop=1;jettySize=auto;html=1;exitX=0.5;exitY=1;exitDx=0;exitDy=0;" parent="WIyWlLk6GJQsqaUBKTNV-1" source="2k3Zc9sMIZEYFVVRc4tp-14" edge="1">
          <mxGeometry relative="1" as="geometry">
            <mxPoint x="860" y="610" as="targetPoint" />
          </mxGeometry>
        </mxCell>
        <mxCell id="2k3Zc9sMIZEYFVVRc4tp-14" value="Pilih data" style="whiteSpace=wrap;html=1;aspect=fixed;" parent="WIyWlLk6GJQsqaUBKTNV-1" vertex="1">
          <mxGeometry x="820" y="490" width="80" height="80" as="geometry" />
        </mxCell>
        <mxCell id="2k3Zc9sMIZEYFVVRc4tp-20" value="simpan" style="whiteSpace=wrap;html=1;aspect=fixed;" parent="WIyWlLk6GJQsqaUBKTNV-1" vertex="1">
          <mxGeometry x="460" y="610" width="80" height="80" as="geometry" />
        </mxCell>
        <mxCell id="2k3Zc9sMIZEYFVVRc4tp-21" value="simpan" style="whiteSpace=wrap;html=1;aspect=fixed;" parent="WIyWlLk6GJQsqaUBKTNV-1" vertex="1">
          <mxGeometry x="640" y="610" width="80" height="80" as="geometry" />
        </mxCell>
        <mxCell id="2k3Zc9sMIZEYFVVRc4tp-22" value="Hapus" style="whiteSpace=wrap;html=1;aspect=fixed;" parent="WIyWlLk6GJQsqaUBKTNV-1" vertex="1">
          <mxGeometry x="820" y="610" width="80" height="80" as="geometry" />
        </mxCell>
        <mxCell id="2k3Zc9sMIZEYFVVRc4tp-28" value="database" style="shape=cylinder3;whiteSpace=wrap;html=1;boundedLbl=1;backgroundOutline=1;size=15;" parent="WIyWlLk6GJQsqaUBKTNV-1" vertex="1">
          <mxGeometry x="470" y="730" width="60" height="80" as="geometry" />
        </mxCell>
        <mxCell id="2k3Zc9sMIZEYFVVRc4tp-29" value="database" style="shape=cylinder3;whiteSpace=wrap;html=1;boundedLbl=1;backgroundOutline=1;size=15;" parent="WIyWlLk6GJQsqaUBKTNV-1" vertex="1">
          <mxGeometry x="650" y="730" width="60" height="80" as="geometry" />
        </mxCell>
        <mxCell id="2k3Zc9sMIZEYFVVRc4tp-30" value="database" style="shape=cylinder3;whiteSpace=wrap;html=1;boundedLbl=1;backgroundOutline=1;size=15;" parent="WIyWlLk6GJQsqaUBKTNV-1" vertex="1">
          <mxGeometry x="830" y="730" width="60" height="80" as="geometry" />
        </mxCell>
        <mxCell id="2k3Zc9sMIZEYFVVRc4tp-31" style="edgeStyle=orthogonalEdgeStyle;rounded=0;orthogonalLoop=1;jettySize=auto;html=1;exitX=0.5;exitY=1;exitDx=0;exitDy=0;entryX=0.5;entryY=0;entryDx=0;entryDy=0;entryPerimeter=0;" parent="WIyWlLk6GJQsqaUBKTNV-1" target="2k3Zc9sMIZEYFVVRc4tp-28" edge="1">
          <mxGeometry relative="1" as="geometry">
            <mxPoint x="499.5" y="750" as="targetPoint" />
            <mxPoint x="499.5" y="690" as="sourcePoint" />
          </mxGeometry>
        </mxCell>
        <mxCell id="2k3Zc9sMIZEYFVVRc4tp-33" style="edgeStyle=orthogonalEdgeStyle;rounded=0;orthogonalLoop=1;jettySize=auto;html=1;exitX=0.5;exitY=1;exitDx=0;exitDy=0;entryX=0.5;entryY=0;entryDx=0;entryDy=0;entryPerimeter=0;" parent="WIyWlLk6GJQsqaUBKTNV-1" source="2k3Zc9sMIZEYFVVRc4tp-21" target="2k3Zc9sMIZEYFVVRc4tp-29" edge="1">
          <mxGeometry relative="1" as="geometry">
            <mxPoint x="660.5" y="730" as="targetPoint" />
            <mxPoint x="660" y="690" as="sourcePoint" />
          </mxGeometry>
        </mxCell>
        <mxCell id="2k3Zc9sMIZEYFVVRc4tp-34" style="edgeStyle=orthogonalEdgeStyle;rounded=0;orthogonalLoop=1;jettySize=auto;html=1;exitX=0.5;exitY=1;exitDx=0;exitDy=0;entryX=0.5;entryY=0;entryDx=0;entryDy=0;entryPerimeter=0;" parent="WIyWlLk6GJQsqaUBKTNV-1" edge="1">
          <mxGeometry relative="1" as="geometry">
            <mxPoint x="859.5" y="730" as="targetPoint" />
            <mxPoint x="859.5" y="690" as="sourcePoint" />
          </mxGeometry>
        </mxCell>
        <mxCell id="2k3Zc9sMIZEYFVVRc4tp-35" value="Message &quot;Berhasil tambah Data&quot;" style="whiteSpace=wrap;html=1;aspect=fixed;" parent="WIyWlLk6GJQsqaUBKTNV-1" vertex="1">
          <mxGeometry x="460" y="850" width="80" height="80" as="geometry" />
        </mxCell>
        <mxCell id="2k3Zc9sMIZEYFVVRc4tp-36" style="edgeStyle=orthogonalEdgeStyle;rounded=0;orthogonalLoop=1;jettySize=auto;html=1;exitX=0.5;exitY=1;exitDx=0;exitDy=0;entryX=0.5;entryY=0;entryDx=0;entryDy=0;entryPerimeter=0;" parent="WIyWlLk6GJQsqaUBKTNV-1" edge="1">
          <mxGeometry relative="1" as="geometry">
            <mxPoint x="499.5" y="850" as="targetPoint" />
            <mxPoint x="499.5" y="810" as="sourcePoint" />
          </mxGeometry>
        </mxCell>
        <mxCell id="2k3Zc9sMIZEYFVVRc4tp-37" value="Message &quot;Berhasil Update Data&quot;" style="whiteSpace=wrap;html=1;aspect=fixed;" parent="WIyWlLk6GJQsqaUBKTNV-1" vertex="1">
          <mxGeometry x="640" y="850" width="80" height="80" as="geometry" />
        </mxCell>
        <mxCell id="2k3Zc9sMIZEYFVVRc4tp-38" style="edgeStyle=orthogonalEdgeStyle;rounded=0;orthogonalLoop=1;jettySize=auto;html=1;exitX=0.5;exitY=1;exitDx=0;exitDy=0;entryX=0.5;entryY=0;entryDx=0;entryDy=0;entryPerimeter=0;" parent="WIyWlLk6GJQsqaUBKTNV-1" edge="1">
          <mxGeometry relative="1" as="geometry">
            <mxPoint x="679.5" y="850" as="targetPoint" />
            <mxPoint x="679.5" y="810" as="sourcePoint" />
          </mxGeometry>
        </mxCell>
        <mxCell id="2k3Zc9sMIZEYFVVRc4tp-39" value="Message &quot;Berhasil Hapus Data&quot;" style="whiteSpace=wrap;html=1;aspect=fixed;" parent="WIyWlLk6GJQsqaUBKTNV-1" vertex="1">
          <mxGeometry x="820" y="850" width="80" height="80" as="geometry" />
        </mxCell>
        <mxCell id="2k3Zc9sMIZEYFVVRc4tp-40" style="edgeStyle=orthogonalEdgeStyle;rounded=0;orthogonalLoop=1;jettySize=auto;html=1;exitX=0.5;exitY=1;exitDx=0;exitDy=0;entryX=0.5;entryY=0;entryDx=0;entryDy=0;entryPerimeter=0;" parent="WIyWlLk6GJQsqaUBKTNV-1" edge="1">
          <mxGeometry relative="1" as="geometry">
            <mxPoint x="859.5" y="850" as="targetPoint" />
            <mxPoint x="859.5" y="810" as="sourcePoint" />
          </mxGeometry>
        </mxCell>
        <mxCell id="2k3Zc9sMIZEYFVVRc4tp-41" value="Selesai" style="rounded=1;whiteSpace=wrap;html=1;fontSize=12;glass=0;strokeWidth=1;shadow=0;arcSize=50;" parent="WIyWlLk6GJQsqaUBKTNV-1" vertex="1">
          <mxGeometry x="620" y="1000" width="120" height="40" as="geometry" />
        </mxCell>
        <mxCell id="2k3Zc9sMIZEYFVVRc4tp-42" style="edgeStyle=orthogonalEdgeStyle;rounded=0;orthogonalLoop=1;jettySize=auto;html=1;exitX=0.5;exitY=1;exitDx=0;exitDy=0;entryX=0.5;entryY=0;entryDx=0;entryDy=0;" parent="WIyWlLk6GJQsqaUBKTNV-1" target="2k3Zc9sMIZEYFVVRc4tp-41" edge="1">
          <mxGeometry relative="1" as="geometry">
            <mxPoint x="679.5" y="970" as="targetPoint" />
            <mxPoint x="679.5" y="930" as="sourcePoint" />
          </mxGeometry>
        </mxCell>
        <mxCell id="2k3Zc9sMIZEYFVVRc4tp-43" style="edgeStyle=orthogonalEdgeStyle;rounded=0;orthogonalLoop=1;jettySize=auto;html=1;exitX=0.5;exitY=1;exitDx=0;exitDy=0;entryX=0.5;entryY=0;entryDx=0;entryDy=0;entryPerimeter=0;" parent="WIyWlLk6GJQsqaUBKTNV-1" edge="1">
          <mxGeometry relative="1" as="geometry">
            <mxPoint x="859.5" y="970" as="targetPoint" />
            <mxPoint x="859.5" y="930" as="sourcePoint" />
          </mxGeometry>
        </mxCell>
        <mxCell id="2k3Zc9sMIZEYFVVRc4tp-44" style="edgeStyle=orthogonalEdgeStyle;rounded=0;orthogonalLoop=1;jettySize=auto;html=1;exitX=0.5;exitY=1;exitDx=0;exitDy=0;entryX=0.5;entryY=0;entryDx=0;entryDy=0;entryPerimeter=0;" parent="WIyWlLk6GJQsqaUBKTNV-1" edge="1">
          <mxGeometry relative="1" as="geometry">
            <mxPoint x="499.5" y="970" as="targetPoint" />
            <mxPoint x="499.5" y="930" as="sourcePoint" />
          </mxGeometry>
        </mxCell>
        <mxCell id="2k3Zc9sMIZEYFVVRc4tp-45" value="" style="endArrow=none;html=1;rounded=0;" parent="WIyWlLk6GJQsqaUBKTNV-1" edge="1">
          <mxGeometry width="50" height="50" relative="1" as="geometry">
            <mxPoint x="500" y="970" as="sourcePoint" />
            <mxPoint x="860" y="970" as="targetPoint" />
          </mxGeometry>
        </mxCell>
        <mxCell id="RSpu5pBSsv6IGobJHVXQ-4" value="" style="edgeStyle=orthogonalEdgeStyle;rounded=0;orthogonalLoop=1;jettySize=auto;html=1;" edge="1" parent="WIyWlLk6GJQsqaUBKTNV-1" source="RSpu5pBSsv6IGobJHVXQ-0" target="RSpu5pBSsv6IGobJHVXQ-3">
          <mxGeometry relative="1" as="geometry" />
        </mxCell>
        <mxCell id="RSpu5pBSsv6IGobJHVXQ-0" value="Masuk Halaman Admin" style="rounded=0;whiteSpace=wrap;html=1;" vertex="1" parent="WIyWlLk6GJQsqaUBKTNV-1">
          <mxGeometry x="620" y="150" width="120" height="60" as="geometry" />
        </mxCell>
        <mxCell id="RSpu5pBSsv6IGobJHVXQ-7" value="" style="edgeStyle=orthogonalEdgeStyle;rounded=0;orthogonalLoop=1;jettySize=auto;html=1;" edge="1" parent="WIyWlLk6GJQsqaUBKTNV-1" source="RSpu5pBSsv6IGobJHVXQ-3" target="2k3Zc9sMIZEYFVVRc4tp-1">
          <mxGeometry relative="1" as="geometry" />
        </mxCell>
        <mxCell id="RSpu5pBSsv6IGobJHVXQ-3" value="Melihat data kamar, tipe kamar, user" style="whiteSpace=wrap;html=1;rounded=0;" vertex="1" parent="WIyWlLk6GJQsqaUBKTNV-1">
          <mxGeometry x="620" y="250" width="120" height="60" as="geometry" />
        </mxCell>
      </root>
    </mxGraphModel>
  </diagram>
</mxfile>
